<svg id="Layer_1" data-name="Layer 1" xmlns="http://www.w3.org/2000/svg" viewBox="0 0 1000 1000"><defs><style>.cls-1{fill:#f26657;}</style></defs><title>Artboard 12</title><path class="cls-1" d="M742.89,689.91s-5.3,52.26-25.77,79.68c-6.58,10.4-19.67,25.75-41.21,29.58l-1.44.23c-18.9,2.86-41.4-8.85-46.46-29.1-16.63-66.57,87.23-98,87.23-98s1-12.53-.15-22.14c0,0-10.54,15.26-28.16,18.3-11.44,2-27,1.66-37.17-16.41-1.86,2.33-18.43,26.37-40.17,30.23C587.47,686.26,582.22,668,582,665.86c0,0-11.16,23.19-32.55,27-25,4.44-30.44-31.73-30.45-31.83-12.79,26.44-24.24,41.43-38.67,44.26-7.92,1.55-16.08,1.25-21.94-5.13-2.64,2.45-7.44,10.49-25.18,13.64-11.23,2-23.44-1.12-28.8-13.09-4.83,24.67-27.1,21.09-31.33,19,0,0-5.8,12.71-25.64,16.82-62.34,12.91-68.9-110.53,3.62-99.09V559c10.08-5.26,19.13-10.68,27-17.16-.59,23.88-3.16,141.9,3.33,150.75,7.22,9.85,17.52-5.36,17.93-14.61-2.91-33.65,16.93-71.72,59-59.36l1-2.25c2.27-5.27,5.43-10.08,11.89-8.57a13.24,13.24,0,0,1,9.95,14c-1.66,21.1-4.11,56.35,2.21,55.23,9.48-1.68,27.75-52.14,34.35-71.26A13.1,13.1,0,0,1,529.94,597c7.45-.08,13.38,6.38,13.19,13.83-.8,31.08,1.25,89.48,33.23,22.85,0-1.1-5-71.69,4.15-108.13C586,503.9,598,484.41,616.25,481.16c20.77-3.69,32.09,24.46,21.77,69C627.16,597.09,605,628.63,605,628.63c-.17,2.3-1.23,26.78,6.08,25.48,23.63-4.2,37.36-53.37,41.76-72.07a11.24,11.24,0,0,1,10.68-8.65c7.51-.2,12.59,6.15,11.28,13.55-4,22.53-7.76,60,12,56.53,21.41-3.8,27.2-47.88,28.74-68.73A14,14,0,0,1,727,562h0a14,14,0,0,1,16.46,12.62c1.17,14,2.43,91.51,2.43,91.51,24.58-2.42,54.18.87,73.52,8.54a364.14,364.14,0,0,0-36.3-403.38c-14.29,117-43.6,182-73,232.76-5.06,8.72-10.57,17.12-20.39,19.38-13.39,3-38.06-9.32-40.31-28.5-5.11-43.48-14.16-172.25-14.8-180.2a2.36,2.36,0,0,0-3.89-1.6c-4.83,4.16-14.09,12.11-23,19.56-11.6,9.69-18.73-37-7.89-47.91,12-12.07,59.7-42.9,77.22-23.59,14.27,15.73,3.57,185.89,3.57,185.89s30.7-53.88,33.58-148.09a148.22,148.22,0,0,0-102.85-145.6A363.52,363.52,0,0,0,500,136c-175.68,0-322.28,124.47-356.46,290,14-31.5,47.83-61.74,98.66-75.12,95.24-25.06,150.45,38.92,157.94,79.51,15.61,84.64-31.59,99.25-97.48,137,2.08,9.78,4.52,19.92,7.39,30.38L258.92,626c-3.82-6.6-6.75-14.77-8.92-24A371.33,371.33,0,0,0,190.36,659s-7.4-29.2,10-65.46c5.67-11.84,29.75-26.36,44.57-35.33-1.57-51.55,8.43-111.37,16.56-133.31l37.35-21.13s-13.5,48.69-2.35,128.56c34.53-16,60-30.38,61.5-75.12,2.2-67.64-55-88.39-99.66-75.33-82.62,24.18-48.55,70.19-30.95,88.16L189,519.24c-30.87-8.29-47.64-27.33-51.71-49.94-.85,10.12-1.3,20.36-1.3,30.7,0,201,163,364,364,364,125.8,0,236.69-63.82,302.07-160.85C792.37,696.82,756.57,688.51,742.89,689.91ZM537.51,587.39a19.07,19.07,0,1,1,15.44-22.11A19.07,19.07,0,0,1,537.51,587.39ZM402.09,371.72a21.72,21.72,0,0,1-24-4.81h0a21.75,21.75,0,0,1,5.57-34.5c23.61-12.3,52.75-24.86,61.76-26.53,36-6.69,24.67,77.31,21.84,115.69,53.2-31.83,67.36-105.45,71.05-137.47a21,21,0,1,1,41.78,5.1c-6.52,49.56-28.62,108.85-89.21,157,63.43.32,106.74,29.28,106.74,29.28S574,493.61,569.2,514.89c-5-3.44-38-27.32-107.85-33.67,0,0-4.15,36.35-12,55.55a14.16,14.16,0,0,1-7.34,7.49,14.44,14.44,0,0,1-20.31-14.62c6.54-65.72,3.32-150.84,1.38-161.09q-.7-3.72-4.28-3C415.78,366.08,408.65,368.93,402.09,371.72Z"/><path class="cls-1" d="M612.83,511.79c-23.24,4.13-13,88-13,88S636.07,507.66,612.83,511.79Z"/><path class="cls-1" d="M664.74,757.86c17.41,30.06,50.34-59,50.34-59S651.13,734.37,664.74,757.86Z"/><ellipse class="cls-1" cx="435.94" cy="661.63" rx="27.33" ry="14.8" transform="translate(-322.75 890.1) rotate(-73.38)"/><ellipse class="cls-1" cx="337.45" cy="687.63" rx="25.06" ry="13.58" transform="translate(-370.27 980.63) rotate(-86.35)"/></svg>